<svg xmlns="http://www.w3.org/2000/svg" xmlns:xlink="http://www.w3.org/1999/xlink" width="500" zoomAndPan="magnify" viewBox="0 0 375 374.999991" height="500" preserveAspectRatio="xMidYMid meet" version="1.0">
  <path fill="#6d493b" d="M 187.5 375 C 291.054688 375 375 291.054688 375 187.5 C 375 83.945312 291.054688 0 187.5 0 C 83.945312 0 0 83.945312 0 187.5 C 0 291.054688 83.945312 375 187.5 375 Z M 102.339844 107.730469 L 187.5 175.859375 L 272.660156 107.730469 L 275.117188 105.683594 L 99.882812 105.683594 Z M 284.230469 121.757812 L 287.5 119.03125 L 287.5 260.226562 C 287.5 265.246094 283.429688 269.320312 278.410156 269.320312 L 96.589844 269.320312 C 91.570312 269.320312 87.5 265.246094 87.5 260.226562 L 87.5 119.03125 L 90.769531 121.757812 L 90.910156 121.871094 L 181.820312 194.597656 C 185.140625 197.253906 189.859375 197.253906 193.179688 194.597656 L 284.089844 121.871094 Z M 284.230469 121.757812 " fill-opacity="1" fill-rule="evenodd" />
</svg>