<svg xmlns="http://www.w3.org/2000/svg" xmlns:xlink="http://www.w3.org/1999/xlink" width="500" zoomAndPan="magnify" viewBox="0 0 375 374.999991" height="500" preserveAspectRatio="xMidYMid meet" version="1.0">
  <path fill="#6d493b" d="M 187.5 0 C 83.652344 0 0 83.652344 0 187.5 C 0 291.347656 83.652344 375 187.5 375 C 291.347656 375 375 291.347656 375 187.5 C 375 83.652344 291.347656 0 187.5 0 Z M 187.5 0 " fill-opacity="1" fill-rule="nonzero" />
  <path fill="#ffffff" d="M 288.460938 186.777344 L 187.5 98.078125 L 87.257812 186.777344 L 87.257812 313.703125 C 87.257812 317.308594 90.144531 319.472656 93.027344 319.472656 L 155.769531 319.472656 L 155.769531 263.941406 C 155.769531 260.335938 158.652344 258.171875 161.539062 258.171875 L 213.460938 258.171875 C 217.066406 258.171875 219.230469 261.058594 219.230469 263.941406 L 219.230469 319.472656 L 281.972656 319.472656 C 285.578125 319.472656 287.742188 316.585938 287.742188 313.703125 Z M 288.460938 186.777344 " fill-opacity="1" fill-rule="nonzero" />
  <path fill="#ffffff" d="M 288.460938 137.742188 L 288.460938 86.539062 L 251.683594 86.539062 L 252.402344 106.007812 L 188.222656 49.039062 L 187.5 49.757812 L 186.777344 49.039062 L 44.710938 175.960938 L 59.132812 192.546875 L 187.5 79.328125 L 315.867188 192.546875 L 331.007812 175.960938 Z M 288.460938 137.742188 " fill-opacity="1" fill-rule="nonzero" />
</svg>