<svg id="eaHIKswuy3N1" xmlns="http://www.w3.org/2000/svg" xmlns:xlink="http://www.w3.org/1999/xlink" viewBox="0 0 60 5" shape-rendering="geometricPrecision" text-rendering="geometricPrecision"><path d="M1.039062,14.480469c0-.066407.054688-.121094.125-.121094h24.644532c.070312,0,.125.054687.125.121094s-.054688.121093-.125.121093h-24.644532c-.070312,0-.125-.054687-.125-.121093Zm0,0" transform="translate(.9375-11.859375)" fill="#c19b87" fill-rule="evenodd"/><path d="M34.066406,14.480469c0-.066407.054688-.121094.125-.121094h24.644532c.070312,0,.125.054687.125.121094s-.054688.121093-.125.121093h-24.644532c-.070312,0-.125-.054687-.125-.121093Zm0,0" transform="translate(-.170454-11.859375)" fill="#c19b87" fill-rule="evenodd"/><g transform="translate(.428977-11.978516)" clip-path="url(#eaHIKswuy3N7)"><g><path d="M30,12.90625c-.886719,0-1.601562.707031-1.601562,1.574219s.714843,1.570312,1.601562,1.570312s1.601562-.703125,1.601562-1.570312-.714843-1.574219-1.601562-1.574219Zm-1.847656,1.574219c0-1.003907.828125-1.816407,1.847656-1.816407s1.847656.8125,1.847656,1.816407c0,1-.828125,1.8125-1.847656,1.8125s-1.847656-.8125-1.847656-1.8125Zm0,0" fill="#c19b87" fill-rule="evenodd"/></g><clipPath id="eaHIKswuy3N7"><path d="M28,12.664062h4v3.628907h-4Zm0,0"/></clipPath></g></svg>
