<svg xmlns="http://www.w3.org/2000/svg" xmlns:xlink="http://www.w3.org/1999/xlink" width="1001" zoomAndPan="magnify" viewBox="0 0 750.75 299.999988" height="400" preserveAspectRatio="xMidYMid meet" version="1.0">
  <defs>
    <filter x="0%" y="0%" width="100%" height="100%" id="4a1b996c54">
      <feColorMatrix values="0 0 0 0 1 0 0 0 0 1 0 0 0 0 1 0 0 0 1 0" color-interpolation-filters="sRGB" />
    </filter>
    <clipPath id="d9157a20e8">
      <path d="M 0 0.0507812 L 750.5 0.0507812 L 750.5 298 L 0 298 Z M 0 0.0507812 " clip-rule="nonzero" />
    </clipPath>
    <mask id="92f4f22eb1">
      <g filter="url(#4a1b996c54)">
        <rect x="-75.075" width="900.9" fill="#000000" y="-29.999999" height="359.999986" fill-opacity="0.3373" />
      </g>
    </mask>
    <clipPath id="d0b187aacb">
      <path d="M 0 1 L 750.5 1 L 750.5 297 L 0 297 Z M 0 1 " clip-rule="nonzero" />
    </clipPath>
    <clipPath id="4c1cea212f">
      <rect x="0" width="751" y="0" height="298" />
    </clipPath>
  </defs>
  <g clip-path="url(#d9157a20e8)">
    <g mask="url(#92f4f22eb1)">
      <g transform="matrix(1, 0, 0, 1, 0, 0.000000000000005801)">
        <g clip-path="url(#4c1cea212f)">
          <g clip-path="url(#d0b187aacb)">
            <path fill="#e4b696" d="M 751.242188 174.625 C 749.171875 179.339844 746.9375 183.886719 745.199219 188.683594 C 732.703125 222.175781 710.433594 244.339844 682.707031 259.886719 C 675.671875 263.855469 668.46875 267.660156 661.101562 270.222656 C 599.105469 291.808594 536.859375 303.800781 474.117188 292.71875 C 434.964844 285.773438 396.058594 277.089844 356.410156 273.699219 C 318.003906 270.390625 278.769531 272.292969 239.867188 272.789062 C 198.3125 273.367188 156.675781 275.433594 116.863281 263.359375 C 80.113281 252.195312 41.621094 245.582031 17.78125 211.675781 C 8.511719 198.523438 0.566406 172.394531 0.484375 155.6875 C 0.398438 137.660156 10.167969 108.136719 22.75 76.792969 C 36.984375 52.316406 47.828125 43.632812 67.695312 33.460938 C 131.761719 0.628906 198.148438 0.214844 265.773438 2.367188 C 310.96875 3.769531 356.660156 0.0507812 401.9375 1.289062 C 445.808594 2.449219 489.261719 7.328125 533.050781 9.890625 C 543.8125 10.550781 554.820312 8.402344 565.746094 8.15625 C 590.578125 7.65625 615.992188 4.265625 640.078125 7.988281 C 668.632812 12.371094 695.535156 24.777344 718.710938 43.550781 C 748.429688 67.53125 760.101562 102.84375 757.039062 146.011719 C 756.871094 148.574219 756.871094 151.140625 756.789062 153.703125 C 754.886719 160.730469 753.0625 167.679688 751.242188 174.625 Z M 751.242188 174.625 " fill-opacity="1" fill-rule="nonzero" />
          </g>
        </g>
      </g>
    </g>
  </g>
</svg>